<svg width="25" height="25" viewBox="0 0 25 25" fill="none" xmlns="http://www.w3.org/2000/svg">
<path d="M19.9421 18.9889C21.8033 16.88 22.7706 14.1295 22.6392 11.3198C22.5078 8.51021 21.2881 5.86198 19.2382 3.93601C17.1883 2.01003 14.4693 0.957505 11.6569 1.00131C8.84455 1.04512 6.15961 2.18183 4.17073 4.17073C2.18183 6.15961 1.04512 8.84455 1.00131 11.6569C0.957505 14.4693 2.01003 17.1883 3.93601 19.2382C5.86198 21.2881 8.51021 22.5078 11.3198 22.6392C14.1295 22.7706 16.88 21.8033 18.9889 19.9421L22.8477 23.8023C22.9743 23.9289 23.146 24 23.325 24C23.504 24 23.6757 23.9289 23.8023 23.8023C23.9289 23.6757 24 23.504 24 23.325C24 23.146 23.9289 22.9743 23.8023 22.8477L19.9421 18.9889ZM2.4263 11.8644C2.4263 9.99773 2.97983 8.17299 4.01691 6.62089C5.05398 5.06879 6.52801 3.85908 8.25261 3.14473C9.97721 2.43038 11.8749 2.24348 13.7057 2.60765C15.5365 2.97182 17.2182 3.87071 18.5382 5.19066C19.8581 6.51062 20.757 8.19232 21.1212 10.0231C21.4853 11.854 21.2985 13.7516 20.5841 15.4762C19.8698 17.2008 18.6601 18.6749 17.108 19.7119C15.5559 20.749 13.7311 21.3025 11.8644 21.3025C9.36214 21.2997 6.96319 20.3044 5.19381 18.535C3.42444 16.7657 2.42915 14.3667 2.4263 11.8644ZM18.6059 12.5386C18.4271 12.5386 18.2557 12.4675 18.1293 12.3411C18.0028 12.2147 17.9318 12.0432 17.9318 11.8644C17.93 10.2558 17.2902 8.71358 16.1527 7.5761C15.0153 6.43866 13.473 5.79882 11.8644 5.79705C11.6856 5.79705 11.5141 5.72601 11.3877 5.5996C11.2613 5.47319 11.1903 5.3017 11.1903 5.1229C11.1903 4.94411 11.2613 4.77263 11.3877 4.64621C11.5141 4.51978 11.6856 4.44875 11.8644 4.44875C13.8305 4.45089 15.7155 5.23287 17.1057 6.6231C18.496 8.01336 19.278 9.8983 19.2801 11.8644C19.2801 12.0432 19.2091 12.2147 19.0826 12.3411C18.9562 12.4675 18.7847 12.5386 18.6059 12.5386Z" fill="#024936"/>
</svg>
