<svg width="55" height="55" viewBox="0 0 55 55" fill="none" xmlns="http://www.w3.org/2000/svg">
<path d="M27.5 0C12.3383 0 0 12.3383 0 27.5C0 42.6617 12.3383 55 27.5 55C42.6617 55 55 42.6617 55 27.5C55 12.3383 42.6617 0 27.5 0ZM27.5 52.5556C13.6828 52.5556 2.44444 41.3172 2.44444 27.5C2.44444 13.6828 13.6828 2.44444 27.5 2.44444C41.3172 2.44444 52.5556 13.6828 52.5556 27.5C52.5556 41.3172 41.3172 52.5556 27.5 52.5556Z" fill="#024936"/>
<path d="M40.8889 27.4444C40.8889 28.1167 40.3389 28.6667 39.6667 28.6667H28.6667V39.6667C28.6667 40.3389 28.1167 40.8889 27.4444 40.8889C26.7722 40.8889 26.2222 40.3389 26.2222 39.6667V28.6667H15.2222C14.55 28.6667 14 28.1167 14 27.4444C14 26.7722 14.55 26.2222 15.2222 26.2222H26.2222V15.2222C26.2222 14.55 26.7722 14 27.4444 14C28.1167 14 28.6667 14.55 28.6667 15.2222V26.2222H39.6667C40.3389 26.2222 40.8889 26.7722 40.8889 27.4444Z" fill="#ED7400"/>
</svg>
