<svg width="125" height="76" viewBox="0 0 125 76" fill="none" xmlns="http://www.w3.org/2000/svg">
<g clip-path="url(#clip0_76_72)">
<path d="M87 0H38C17.0132 0 0 17.0132 0 38C0 58.9868 17.0132 76 38 76H87C107.987 76 125 58.9868 125 38C125 17.0132 107.987 0 87 0Z" fill="#024936"/>
<path d="M89.5333 62.2786L66.7534 39.4902L89.5333 16.7019C90.13 16.0842 90.13 15.1046 89.5333 14.4867C88.9219 13.8534 87.9129 13.8359 87.2798 14.4476L64.4999 37.2359L41.7202 14.4478C41.1027 13.851 40.1235 13.851 39.5058 14.4478C38.8728 15.0595 38.8553 16.0688 39.4667 16.7021L62.2464 39.4902L39.4667 62.2784C39.1679 62.5773 39 62.9827 39 63.4054C38.9998 64.2859 39.7134 64.9998 40.5936 65C41.0163 65.0004 41.4218 64.8322 41.7202 64.5327L64.4999 41.7446L87.2798 64.5329C87.5783 64.8324 87.9839 65.0006 88.4067 65C88.8291 64.9998 89.2341 64.832 89.533 64.5333C90.1555 63.9107 90.1557 62.9012 89.5333 62.2786Z" fill="#F2E8D1"/>
</g>
<defs>
<clipPath id="clip0_76_72">
<rect width="125" height="76" fill="white"/>
</clipPath>
</defs>
</svg>
