<svg width="125" height="76" viewBox="0 0 125 76" fill="none" xmlns="http://www.w3.org/2000/svg">
<g clip-path="url(#clip0_76_72)">
<path d="M87 0H38C17.0132 0 0 17.0132 0 38C0 58.9868 17.0132 76 38 76H87C107.987 76 125 58.9868 125 38C125 17.0132 107.987 0 87 0Z" fill="#024936"/>
<path d="M79.8256 52.6705C84.0336 47.9026 86.2205 41.6841 85.9235 35.3318C85.6264 28.9796 82.8687 22.9923 78.2342 18.6379C73.5997 14.2835 67.4523 11.9039 61.0939 12.003C54.7355 12.102 48.6652 14.672 44.1686 19.1686C39.672 23.6652 37.102 29.7355 37.003 36.0939C36.9039 42.4523 39.2835 48.5997 43.6379 53.2342C47.9923 57.8687 53.9796 60.6264 60.3318 60.9235C66.6841 61.2205 72.9026 59.0336 77.6705 54.8256L86.3948 63.553C86.681 63.8392 87.0692 64 87.4739 64C87.8787 64 88.2668 63.8392 88.553 63.553C88.8392 63.2668 89 62.8787 89 62.4739C89 62.0692 88.8392 61.681 88.553 61.3948L79.8256 52.6705ZM40.2247 36.563C40.2247 32.3427 41.4761 28.2172 43.8208 24.7081C46.1655 21.199 49.4981 18.464 53.3972 16.849C57.2963 15.2339 61.5867 14.8113 65.7259 15.6347C69.8652 16.458 73.6673 18.4903 76.6515 21.4745C79.6358 24.4588 81.668 28.2609 82.4914 32.4001C83.3147 36.5394 82.8922 40.8298 81.2771 44.7289C79.6621 48.628 76.9271 51.9606 73.418 54.3052C69.9089 56.6499 65.7834 57.9014 61.563 57.9014C55.9057 57.8949 50.482 55.6447 46.4817 51.6444C42.4813 47.6441 40.2311 42.2203 40.2247 36.563ZM76.8047 38.0872C76.4005 38.0872 76.0128 37.9266 75.727 37.6408C75.4411 37.355 75.2806 36.9673 75.2806 36.563C75.2765 32.9262 73.83 29.4394 71.2583 26.8677C68.6867 24.2961 65.1999 22.8495 61.563 22.8455C61.1588 22.8455 60.7711 22.6849 60.4853 22.3991C60.1994 22.1133 60.0389 21.7256 60.0389 21.3213C60.0389 20.9171 60.1994 20.5294 60.4853 20.2436C60.7711 19.9578 61.1588 19.7972 61.563 19.7972C66.0081 19.802 70.2698 21.57 73.4129 24.7131C76.5561 27.8563 78.3241 32.1179 78.3289 36.563C78.3289 36.9673 78.1683 37.355 77.8825 37.6408C77.5966 37.9266 77.209 38.0872 76.8047 38.0872Z" fill="#F2E8D1"/>
</g>
<defs>
<clipPath id="clip0_76_72">
<rect width="125" height="76" fill="white"/>
</clipPath>
</defs>
</svg>
