<svg width="109" height="31" viewBox="0 0 109 31" fill="none" xmlns="http://www.w3.org/2000/svg">
<path d="M24.3123 29.0373H17.3223C17.944 28.2122 18.0205 27.3059 18.0185 26.3762C18.015 24.273 18.0216 22.1736 18.0138 20.0744C18.0124 19.7103 17.9785 19.3423 17.9228 18.982C17.8456 18.4784 17.6621 18.0254 17.0953 17.8975C16.4985 17.7581 15.9815 17.9247 15.5812 18.3932C15.1837 18.8581 15.0017 19.4391 14.9955 20.0202C14.968 22.4603 14.9761 24.9005 15.0103 27.3406C15.018 27.9217 15.2061 28.4872 15.6755 29.0102H8.69781C9.33779 28.1657 9.37347 27.2013 9.3696 26.2252C9.36106 24.1723 9.37113 22.1233 9.36338 20.0704C9.36223 19.7064 9.34243 19.3384 9.28078 18.9781C9.19001 18.4554 8.99569 17.975 8.37705 17.8782C7.74405 17.7775 7.21617 17.975 6.84577 18.5094C6.42611 19.1176 6.31633 19.8226 6.3082 20.5313C6.2857 22.654 6.29113 24.7766 6.30548 26.9031C6.31052 27.6389 6.46179 28.3517 6.98889 29.0102H0.0294779C0.655488 28.1928 0.708623 27.2556 0.706684 26.3026C0.700478 23.2001 0.700478 20.1015 0.706684 16.9989C0.708623 16.0654 0.63881 15.1552 0 14.2837C1.81907 14.2837 3.5408 14.2721 5.26213 14.2915C5.71167 14.2992 6.02273 14.5703 6.16972 15.0196C6.2628 15.3063 6.2663 15.5929 6.29889 15.8834C6.33573 16.2088 6.11892 16.7085 6.44239 16.8207C6.86943 16.9679 7.07151 16.4528 7.28327 16.1507C8.33322 14.6594 9.72797 13.8731 11.5796 13.9777C12.9864 14.059 13.9572 14.7485 14.4983 16.0538C14.6216 16.3521 14.5708 16.8052 14.9959 16.871C15.4652 16.9485 15.6592 16.5187 15.8806 16.2127C16.6955 15.0855 17.6881 14.2643 19.1212 14.0242C21.2905 13.664 22.8012 14.6168 23.3399 16.7471C23.5398 17.5334 23.6015 18.3312 23.6015 19.1408C23.6026 21.6547 23.6072 24.1684 23.6111 26.6861C23.6123 27.4996 23.7333 28.2819 24.3123 29.0373ZM40.4827 14.2798C42.3158 14.2798 44.0177 14.2643 45.7201 14.2876C46.4086 14.2953 46.6901 14.7872 46.7712 15.3954C46.8193 15.7556 46.7944 16.1235 46.8096 16.4916C46.8154 16.631 46.779 16.8052 46.9592 16.8633C47.1199 16.9136 47.2506 16.8052 47.3424 16.7006C47.6605 16.3289 47.9534 15.9376 48.2729 15.5697C49.5378 14.1133 51.1412 13.6872 52.9727 14.1326C54.0862 14.4076 54.7154 15.2288 55.0845 16.2824C55.3503 17.0376 55.6684 17.0957 56.1834 16.4916C56.4685 16.1546 56.7124 15.7865 57.0088 15.4612C58.2927 14.0668 59.898 13.6562 61.6802 14.1559C63.2347 14.5897 63.7339 15.9027 63.9759 17.3397C64.2133 18.7457 64.0951 20.1635 64.1129 21.5772C64.1335 23.2389 64.1182 24.9005 64.1199 26.5583C64.1202 27.4181 64.2002 28.2587 64.8257 29.0218H57.8722C58.7337 27.79 58.5079 26.3917 58.5234 25.0361C58.5421 23.3977 58.5324 21.7632 58.5241 20.1285C58.5222 19.7606 58.4966 19.3926 58.4431 19.0324C58.3597 18.4746 58.1642 17.9789 57.513 17.8743C56.8781 17.7775 56.3642 17.9983 55.9902 18.5288C55.6707 18.982 55.5069 19.5088 55.5019 20.0395C55.4763 22.4564 55.476 24.8734 55.5136 27.2904C55.5225 27.8868 55.6846 28.4911 56.2126 29.0218H49.195C49.786 28.2393 49.8799 27.3795 49.8783 26.4963C49.8737 24.3466 49.8799 22.2007 49.8741 20.051C49.8729 19.7103 49.8613 19.3655 49.8026 19.0285C49.7072 18.4825 49.5245 17.9711 48.866 17.8743C48.1992 17.7813 47.6628 18.0099 47.3029 18.5869C46.9298 19.1873 46.8232 19.8691 46.8169 20.5507C46.7979 22.6501 46.8013 24.7495 46.8135 26.8488C46.818 27.6118 46.9531 28.3478 47.5198 29.0218H40.5308C41.1359 28.22 41.2174 27.3369 41.2158 26.4266C41.2119 23.3745 41.2135 20.3222 41.215 17.27C41.2158 16.2475 41.2383 15.221 40.4827 14.2798ZM71.4676 21.1318C71.4676 22.1271 71.4625 22.8864 71.4687 23.6417C71.4737 24.2769 71.5524 24.9121 71.7782 25.5048C72.0221 26.1477 72.4112 26.6668 73.1814 26.7171C73.9809 26.7752 74.6271 26.4886 75.0398 25.7952C75.2231 25.4893 75.3577 25.1368 75.4423 24.7882C75.8647 23.0336 75.796 21.2557 75.6188 19.4817C75.5454 18.7496 75.3473 18.0486 74.9823 17.4017C74.5281 16.5923 73.6531 16.0848 72.8897 16.1894C72.2304 16.2824 71.7879 16.902 71.592 17.944C71.378 19.0827 71.5074 20.2292 71.4676 21.1318ZM71.509 26.9689C71.333 29.0179 71.2879 29.0605 69.3064 29.0605H65.1763C65.9079 28.0689 65.8737 26.9767 65.8729 25.8882C65.8684 21.3487 65.8668 16.8052 65.8754 12.2657C65.8765 11.4833 65.7408 10.817 64.9085 10.4839C64.5217 10.329 64.5957 10.0656 64.9174 9.91844C66.691 9.11667 68.4232 8.20254 70.3191 7.70288C71.2131 7.4705 71.4606 7.69901 71.4625 8.64409C71.4668 10.7435 71.4606 12.8428 71.4687 14.9422C71.4695 15.1668 71.3531 15.4612 71.6703 15.5774C71.9156 15.6665 72.0908 15.496 72.2374 15.3334C74.2206 13.1294 78.0709 13.6291 79.7461 16.3444C81.7602 19.6096 81.9638 23.0646 80.2096 26.5041C79.2953 28.2974 77.7097 29.2424 75.6569 29.3625C74.1767 29.4516 73.0674 28.8359 72.1917 27.6931C72.009 27.457 71.8953 27.1432 71.509 26.9689ZM33.5861 22.5997H33.6055C33.6055 22.0421 33.6169 21.4804 33.6016 20.9187C33.5897 20.4694 33.7048 19.9388 33.2115 19.6677C32.6964 19.3849 32.2123 19.6638 31.7718 19.9156C31.5029 20.0742 31.2482 20.2875 31.0527 20.5275C29.9057 21.9452 29.6827 23.5604 30.14 25.2763C30.394 26.2329 31.1531 26.752 32.0224 26.69C32.85 26.6319 33.4892 25.9618 33.5738 24.9354C33.6378 24.1645 33.5861 23.3783 33.5861 22.5997ZM39.9708 29.0605C38.2017 29.0605 36.5882 29.0528 34.9743 29.0644C34.2982 29.0683 33.8856 28.8126 33.6936 28.127C33.4609 27.298 33.1161 27.2052 32.442 27.7861C31.5585 28.5492 30.6275 29.1882 29.4321 29.3354C26.3762 29.7034 24.3679 27.4878 24.9939 24.4473C25.4461 22.255 26.8211 20.7792 28.6952 19.6987C29.8658 19.0246 31.1303 18.583 32.447 18.2927C33.0357 18.161 33.5974 18.0215 33.6091 17.2274C33.623 16.2088 33.234 15.4883 32.4517 15.2404C31.5154 14.946 30.7246 15.2869 30.0027 15.8485C29.2616 16.4218 28.7193 17.1848 28.1515 17.9169C27.7942 18.3818 27.4699 18.8736 26.9975 19.2377C26.7586 19.4197 26.5003 19.5515 26.1866 19.4004C25.8816 19.2532 25.7875 18.9975 25.7889 18.6837C25.7909 18.2656 25.8356 17.8433 25.775 17.4366C25.5896 16.17 26.2005 15.3566 27.2858 14.8957C30.1543 13.6756 33.0877 13.4664 35.9289 14.8725C38.2158 16.0035 39.2353 18.0254 39.2525 20.5546C39.2656 22.5571 39.2533 24.5596 39.2575 26.5622C39.2586 27.4183 39.3156 28.2626 39.9708 29.0605ZM92.5269 23.905C92.4827 22.9561 92.4625 22.0535 92.3003 21.1627C91.9575 19.2803 91.5236 17.4288 90.2912 15.895C89.3437 14.7136 88.3326 14.8647 87.7295 16.2398C87.6127 16.5071 87.5165 16.7858 87.4506 17.0686C86.9848 19.0595 87.1516 21.0427 87.5604 23.0181C87.9032 24.6759 88.3652 26.291 89.4778 27.6195C90.4271 28.7506 91.4068 28.5841 91.9908 27.2323C92.4571 26.1554 92.4757 25.0051 92.5269 23.905ZM97.4834 21.4843C97.4675 25.8146 93.9018 29.3858 89.6055 29.3664C85.479 29.347 82.2291 26.016 82.2625 21.8368C82.2963 17.545 85.8557 13.9816 90.107 13.9777C94.2176 13.9777 97.4977 17.3165 97.4834 21.4843Z" fill="#ED7400"/>
<path d="M102.537 14.8072C104.859 16.0088 107.573 14.0677 107.13 11.5218C106.954 10.5089 107.294 9.47665 108.04 8.76027C109.919 6.95777 108.883 3.81492 106.286 3.44517C105.255 3.29497 104.364 2.65948 103.902 1.73896C102.741 -0.579654 99.3857 -0.579654 98.2251 1.73896C97.764 2.65948 96.8729 3.29497 95.8415 3.44517C93.2449 3.81492 92.2082 6.95777 94.0873 8.76027C94.833 9.47665 95.1736 10.5089 94.9977 11.5218C94.5538 14.0677 97.2682 16.0088 99.5906 14.8072C100.045 14.5719 100.551 14.449 101.064 14.449C101.577 14.449 102.083 14.5719 102.537 14.8072Z" fill="#024936"/>
</svg>
