<svg width="50" height="54" viewBox="0 0 50 54" fill="none" xmlns="http://www.w3.org/2000/svg">
<path d="M48 8H8.5L44 19L48 8Z" fill="#ED7400"/>
<path d="M16 43C13.0545 43 10.6667 45.3879 10.6667 48.3333C10.6667 51.2788 13.0545 53.6667 16 53.6667C18.944 53.6629 21.3296 51.2773 21.3333 48.3333C21.3333 45.3879 18.9455 43 16 43ZM16 51C14.5272 51 13.3333 49.8062 13.3333 48.3333C13.3333 46.8605 14.5272 45.6667 16 45.6667C17.4723 45.6676 18.6657 46.861 18.6667 48.3333C18.6667 49.8062 17.4728 51 16 51ZM37.3333 43C34.3879 43 32 45.3879 32 48.3333C32 51.2788 34.3879 53.6667 37.3333 53.6667C40.2773 53.6629 42.6629 51.2773 42.6667 48.3333C42.6667 45.3879 40.2788 43 37.3333 43ZM37.3333 51C35.8605 51 34.6667 49.8062 34.6667 48.3333C34.6667 46.8605 35.8605 45.6667 37.3333 45.6667C38.8057 45.6676 39.999 46.861 40 48.3333C40 49.8062 38.8062 51 37.3333 51ZM43.9961 27.134L49.2891 7.34375C49.3188 7.23194 49.3338 7.11686 49.3338 7.00114C49.334 6.26433 48.7368 5.66683 48 5.66667H7.7863L6.62272 1.32422C6.46647 0.741376 5.93831 0.33594 5.3348 0.33594H1.34619C1.34163 0.33594 1.33789 0.333336 1.33333 0.333336C0.597005 0.333336 0 0.930341 0 1.66667C0 2.403 0.597005 3 1.33333 3H4.3099L11.1895 28.6769C11.3457 29.2607 11.8748 29.6667 12.4792 29.6667H21.3333H39.6276H42.6667C44.8758 29.6667 46.6667 31.4575 46.6667 33.6667C46.6667 35.8758 44.8758 37.6667 42.6667 37.6667H5.33333C4.59701 37.6667 4 38.2637 4 39C4 39.7363 4.59701 40.3333 5.33333 40.3333H42.6667C46.3486 40.3333 49.3333 37.3486 49.3333 33.6667C49.3333 30.4401 47.041 27.7503 43.9961 27.134ZM41.2699 27H39.6276H21.3333H13.5026L8.50081 8.33334H46.263L41.2699 27Z" fill="#024936"/>
</svg>
