<svg width="66" height="54" viewBox="0 0 66 54" fill="none" xmlns="http://www.w3.org/2000/svg">
<path d="M26.5781 51.8906C40.5578 51.8906 51.8906 40.5578 51.8906 26.5781C51.8906 12.5984 40.5578 1.26562 26.5781 1.26562C12.5984 1.26562 1.26562 12.5984 1.26562 26.5781C1.26562 40.5578 12.5984 51.8906 26.5781 51.8906Z" fill="white"/>
<path d="M26.5781 35.8594C19.2797 35.8594 12.7406 38.9391 8.10001 43.875C12.6984 48.8109 19.2797 51.8906 26.5781 51.8906C33.8766 51.8906 40.4156 48.8109 45.0563 43.875C40.4156 38.9391 33.8766 35.8594 26.5781 35.8594Z" fill="#ED7400"/>
<path d="M26.5781 53.1562C19.2375 53.1562 12.1922 50.0766 7.17188 44.7609C6.75 44.2969 6.70781 43.6219 7.0875 43.1156C7.12969 43.0734 7.12969 43.0312 7.17188 43.0312C12.1922 37.6734 19.2797 34.5938 26.5781 34.5938C31.725 34.5938 36.7031 36.0703 41.0062 38.8547C41.5969 39.2344 41.7656 40.0359 41.3859 40.6266C41.0062 41.2172 40.2047 41.3859 39.6141 41.0062C35.775 38.475 31.2188 37.125 26.5781 37.125C20.25 37.125 14.3859 39.5297 9.87187 43.875C14.3859 48.2203 20.25 50.625 26.5781 50.625C39.825 50.625 50.625 39.825 50.625 26.5781C50.625 13.3313 39.825 2.53125 26.5781 2.53125C13.3313 2.53125 2.53125 13.3313 2.53125 26.5781C2.53125 30.4594 3.45937 34.3406 5.27344 37.7578C5.61094 38.3906 5.35781 39.15 4.725 39.4875C4.09219 39.825 3.33281 39.5719 2.99531 38.9391C1.05469 35.1422 0 30.8812 0 26.5781C0 11.9391 11.9391 0 26.5781 0C41.2172 0 53.1562 11.9391 53.1562 26.5781C53.1562 41.2172 41.2172 53.1562 26.5781 53.1562Z" fill="#024936"/>
<path d="M26.5781 10.125C21.0094 10.125 16.4531 14.6813 16.4531 20.25C16.4531 25.8187 21.0094 30.375 26.5781 30.375C32.1469 30.375 36.7031 25.8187 36.7031 20.25C36.7031 14.6813 32.1469 10.125 26.5781 10.125Z" fill="#ED7400"/>
<path d="M55.125 24C49.5563 24 45 28.5563 45 34.125C45 39.6937 49.5563 44.25 55.125 44.25C60.6937 44.25 65.25 39.6937 65.25 34.125C65.25 28.5563 60.6937 24 55.125 24Z" fill="#ED7400"/>
<path d="M64 34.5C64 34.925 63.6523 35.2727 63.2273 35.2727H56.2727V42.2273C56.2727 42.6523 55.925 43 55.5 43C55.075 43 54.7273 42.6523 54.7273 42.2273V35.2727H47.7727C47.3477 35.2727 47 34.925 47 34.5C47 34.075 47.3477 33.7273 47.7727 33.7273H54.7273V26.7727C54.7273 26.3477 55.075 26 55.5 26C55.925 26 56.2727 26.3477 56.2727 26.7727V33.7273H63.2273C63.6523 33.7273 64 34.075 64 34.5Z" fill="#F2E8D1"/>
</svg>
