<svg width="53" height="53" viewBox="0 0 53 53" fill="none" xmlns="http://www.w3.org/2000/svg">
<path d="M2 16.5L27 2L2 31V16.5Z" fill="#ED7400"/>
<path d="M51.6603 52.8184H32.7563C32.1246 52.8184 31.5982 52.307 31.5982 51.6603V35.4934C31.5982 34.7414 30.9816 34.1248 30.2297 34.1248H22.7553C22.0033 34.1248 21.3867 34.7414 21.3867 35.4934V51.6754C21.3867 52.307 20.8754 52.8334 20.2287 52.8334H1.33965C0.708007 52.8334 0.181641 52.3221 0.181641 51.6754V15.9275C0.181641 15.5215 0.407227 15.1455 0.753125 14.935L25.9285 0.332028C26.2895 0.121481 26.7256 0.121481 27.0865 0.332028L52.2469 14.935C52.6078 15.1455 52.8184 15.5215 52.8184 15.9275V51.6603C52.8184 52.307 52.307 52.8184 51.6603 52.8184ZM33.8992 50.5174H50.5174V16.5893L26.5 2.66308L2.48262 16.5893V50.5174H19.1008V35.4934C19.1008 33.4781 20.74 31.8238 22.7703 31.8238H30.2447C32.26 31.8238 33.9143 33.4631 33.9143 35.4934V50.5174H33.8992Z" fill="#024936"/>
</svg>
